<?xml version="1.0" standalone="no"?>
<!DOCTYPE svg PUBLIC "-//W3C//DTD SVG 20010904//EN"
 "http://www.w3.org/TR/2001/REC-SVG-20010904/DTD/svg10.dtd">
<svg version="1.0" xmlns="http://www.w3.org/2000/svg"
 width="300.000000pt" height="300.000000pt" viewBox="0 0 300.000000 300.000000"
 preserveAspectRatio="xMidYMid meet">

<g transform="translate(0.000000,300.000000) scale(0.100000,-0.100000)"
fill="#000000" stroke="none">
<path d="M2338 1755 c-17 -42 -23 -67 -16 -71 6 -4 14 -1 19 7 63 105 68 117
53 123 -27 10 -30 7 -56 -59z"/>
<path d="M250 1773 c-38 -15 -70 -46 -70 -69 0 -37 36 -32 56 9 9 17 23 40 32
50 15 17 10 20 -18 10z"/>
<path d="M303 1741 l-33 -33 0 -194 0 -194 -29 -6 c-32 -7 -49 -32 -27 -40 7
-3 50 -4 97 -2 68 2 84 6 87 19 2 11 -7 18 -27 22 l-31 6 -2 228 -3 228 -32
-34z"/>
<path d="M400 1625 c0 -8 11 -17 25 -21 14 -3 25 -9 25 -13 0 -3 -22 -34 -50
-68 -27 -34 -50 -65 -50 -68 0 -13 131 -173 146 -179 9 -3 33 -6 55 -6 31 0
39 4 39 19 0 12 -9 20 -29 24 -20 4 -44 27 -85 80 -31 40 -56 77 -56 81 0 20
89 116 117 126 17 6 34 17 37 25 4 13 -10 15 -84 15 -73 0 -90 -3 -90 -15z"/>
<path d="M754 1621 c-75 -45 -107 -141 -80 -234 18 -60 47 -93 103 -112 33
-12 42 -11 67 3 43 25 44 42 4 42 -55 0 -94 39 -112 112 l-6 27 102 3 103 3 3
39 c9 108 -92 173 -184 117z m90 -24 c9 -7 20 -32 23 -55 5 -37 3 -42 -14 -42
-11 0 -41 -3 -67 -6 l-46 -7 0 32 c0 23 9 42 29 62 32 32 48 35 75 16z"/>
<path d="M1277 1610 c-14 -16 -29 -40 -33 -52 -7 -20 -9 -18 -14 17 l-5 40
-28 -29 c-26 -28 -27 -32 -27 -146 l0 -116 -31 -15 c-55 -25 -34 -34 78 -34
92 0 108 2 111 16 2 13 -8 18 -42 23 l-46 7 0 100 c0 93 2 102 25 124 26 26
54 32 72 14 13 -13 43 14 43 40 0 49 -66 56 -103 11z"/>
<path d="M1656 1609 c-32 -20 -47 -25 -43 -15 10 24 -6 19 -36 -12 -26 -27
-27 -32 -27 -145 l0 -117 -30 -6 c-16 -4 -30 -13 -30 -21 0 -11 18 -13 92 -11
92 3 128 19 68 31 l-30 7 0 119 0 120 30 16 c39 20 62 19 94 -6 25 -20 26 -23
26 -135 0 -112 0 -114 -24 -120 -14 -3 -27 -12 -30 -20 -4 -11 11 -14 84 -14
93 0 123 13 71 31 l-31 11 0 112 c0 121 5 135 58 150 64 20 92 -30 92 -168 l0
-94 -30 -11 c-56 -19 -33 -31 60 -31 71 0 90 3 90 14 0 8 -13 17 -30 21 l-30
7 0 121 c0 132 -8 162 -51 186 -33 19 -89 8 -129 -25 l-30 -26 -29 31 c-39 42
-89 42 -155 0z"/>
<path d="M2274 1621 c-67 -41 -100 -112 -91 -198 7 -71 37 -116 94 -144 46
-22 46 -22 81 -3 46 24 50 39 12 40 -55 2 -103 49 -116 112 l-6 32 100 0 100
0 5 28 c9 44 -9 105 -38 130 -33 28 -98 30 -141 3z m83 -26 c23 -16 40 -72 27
-85 -5 -5 -38 -12 -73 -16 l-63 -7 7 34 c10 43 24 65 50 78 27 13 28 13 52 -4z"/>
<path d="M2748 1617 c12 -13 27 -37 32 -54 17 -48 60 -56 60 -12 0 25 -37 60
-80 76 l-33 12 21 -22z"/>
<path d="M1133 1611 c-43 -20 -68 -53 -59 -77 9 -24 36 -15 54 18 9 17 28 42
41 55 29 28 20 29 -36 4z"/>
<path d="M1530 1614 c-19 -8 -42 -22 -52 -31 -21 -19 -24 -63 -5 -63 15 0 47
31 47 45 0 5 12 22 27 37 31 32 30 32 -17 12z"/>
<path d="M2638 1613 c-66 -75 -44 -139 68 -203 78 -45 95 -92 37 -106 -35 -9
-68 9 -84 45 -17 37 -45 40 -61 6 -15 -34 11 -71 61 -86 82 -24 171 21 171 88
0 51 -14 69 -90 118 -38 24 -73 52 -78 62 -10 19 -1 57 17 68 14 8 5 25 -13
25 -7 0 -20 -8 -28 -17z"/>
<path d="M966 1395 c-9 -9 -16 -26 -16 -37 0 -11 -10 -34 -22 -51 l-22 -30 33
19 c18 10 42 30 52 43 34 42 11 92 -25 56z"/>
<path d="M2486 1395 c-9 -9 -16 -22 -16 -28 0 -7 -9 -29 -20 -50 l-21 -39 32
19 c35 20 69 59 69 78 0 7 -6 18 -14 24 -11 9 -18 8 -30 -4z"/>
</g>
</svg>
